<svg id="Layer_1" data-name="Layer 1" xmlns="http://www.w3.org/2000/svg" viewBox="0 0 3993.11 745.1"><defs><style>.cls-1,.cls-2{fill:#fff;}.cls-2{font-size:507.39px;font-family:Montserrat-Black, Montserrat;font-weight:800;}.cls-3{letter-spacing:-0.02em;}</style></defs><title>favicon</title><path class="cls-1" d="M16.2,451.62A1.35,1.35,0,0,1,17,449.3c.76,0,1.42,0,2.08,0H336.83c5.76,0,5.74-.33,4.89,5.95-1.53,11.37-3.18,22.72-4.79,34.08q-1.73,12.09-3.51,24.18a21.57,21.57,0,0,0-.38,4.1,1.31,1.31,0,0,0,1.62,1.21,1,1,0,0,0,.21-.08q111.38-63.43,222.82-126.95a1.35,1.35,0,0,0,.49-1.88,17.31,17.31,0,0,0-3-3.13q-26.11-25.47-52.26-50.89-20.58-20-41.19-40L428,263.17Q411,246.64,394,230.12c-5-4.86-10.08-9.69-15.12-14.53-.24-.23-.46-.49-.72-.7-.61-.47-1.13-1.46-2-.9a2.64,2.64,0,0,0-.84,1.71c-.75,5.1-1.42,10.21-2.14,15.31q-1.91,13.59-3.83,27.16c-.46,3.3-.87,6.6-1.31,9.9-.13,1-.22,2-.44,2.95-.41,1.83-.88,2.23-2.67,2.31-1.16.06-2.33,0-3.49,0H136.06c-1.33,0-2.67,0-4-.07s-1.77-.67-1.66-2c.3-3.47.66-6.95,1-10.42,1-9.43,1.92-18.86,2.92-28.28.82-7.77,1.71-15.54,2.57-23.3.4-3.64.6-7.29,1-10.93,1-8.08,1.54-16.22,2.38-24.33,1.17-11.41,2.48-22.81,3.66-34.22.83-8.1,1.5-16.23,2.33-24.33s1.8-16.2,2.64-24.3c.81-7.94,1.5-15.89,2.31-23.84s1.75-15.86,2.58-23.8c.49-4.63.89-9.27,1.33-13.9.07-.83,0-1.68.16-2.5,1.33-8-.27-6.87,7.61-6.87q144.63,0,289.25,0c5.83,0,11.66.06,17.49.23,10.65.3,21.22,1.43,31.79,2.73A305.52,305.52,0,0,1,544,31.56c33.83,9.13,64.85,24,92.57,45.54a239.06,239.06,0,0,1,49,51.58c20.06,28.54,33.62,60,42.15,93.71a349.2,349.2,0,0,1,7.68,40.66c1.17,9.06,1.88,18.18,2.52,27.32,1.21,17.31.95,34.61.5,51.92-.21,8.13-.51,16.29-1.46,24.4-.5,4.29-.68,8.61-1.1,12.92a469.21,469.21,0,0,1-18.47,93.31A433.21,433.21,0,0,1,697,526,377.21,377.21,0,0,1,665.8,581.1a332.2,332.2,0,0,1-48.23,56.48,318.07,318.07,0,0,1-62.88,45.66,323.45,323.45,0,0,1-85.09,32.35q-15.57,3.55-31.41,5.61c-13.21,1.72-26.46,2.66-39.77,3.18-9.66.38-19.3.4-28.95.4q-139.14,0-278.27,0c-7.31,0-7.58,1.3-6.33-7.29.55-3.78.84-7.61,1.21-11.41,1.12-11.42,2.16-22.85,3.33-34.26,1.13-11.09,2.44-22.15,3.59-33.23.84-8.1,1.51-16.23,2.34-24.33S97.1,598.06,98,590q.59-5.46,1.11-10.92c1.11-11.42,2.19-22.84,3.31-34.26.38-3.81.74-7.62,1.3-11.4a3.43,3.43,0,0,0-1.36-3.44q-18.54-16.73-37-33.52-5.93-5.35-11.83-10.74-17-15.46-34-30.94C18.42,453.76,17.37,452.74,16.2,451.62Z"/><text class="cls-2" transform="translate(953.88 560.69)">In<tspan class="cls-3" x="533.77" y="0">t</tspan><tspan x="759.55" y="0">ernship</tspan></text></svg>